<svg width="174" height="74" viewBox="0 0 174 74" fill="none" xmlns="http://www.w3.org/2000/svg">
<g id="NextGen Learning 250">
<g id="Group">
<path id="Vector" d="M26.0054 41.0897L30.4704 33.4268L30.41 33.3062L20.937 36.9868L26.0054 41.0897Z" fill="url(#paint0_linear_341_3596)"/>
<path id="Vector_2" d="M20.7563 36.9867L20.9373 36.8057L19.5495 29.2031L16.6533 33.6078L20.7563 36.9867Z" fill="url(#paint1_linear_341_3596)"/>
<path id="Vector_3" d="M19.5489 29.2035L7.66235 26.4883L16.6527 33.6081L19.5489 29.2035Z" fill="#3A3A96"/>
<path id="Vector_4" d="M16.5923 33.6081L7.66235 26.4883L11.0413 36.082L16.5923 33.6081Z" fill="url(#paint2_linear_341_3596)"/>
<path id="Vector_5" d="M7.66262 26.4885L0.482422 24.437L2.23222 34.9961L7.66262 26.4885Z" fill="url(#paint3_linear_341_3596)"/>
<path id="Vector_6" d="M2.29349 35.1166L11.0425 36.082L7.60322 26.4883L2.23315 34.9959L2.29349 35.1166Z" fill="url(#paint4_linear_341_3596)"/>
<path id="Vector_7" d="M39.3407 53.9425L41.6938 43.6851L33.3069 50.1412L33.4879 57.9248L39.3407 53.9425Z" fill="url(#paint5_linear_341_3596)"/>
<path id="Vector_8" d="M32.2815 43.4441L30.4713 33.3677L26.0063 41.1513L32.2815 43.4441Z" fill="url(#paint6_linear_341_3596)"/>
<path id="Vector_9" d="M4.46509 13.2147L7.24062 17.378L12.852 7.30155L11.8263 5.12939L7.90434 8.26696L4.46509 13.2147Z" fill="#784D9E"/>
<path id="Vector_10" d="M44.4695 8.62878L40.7285 5.06885L42.1766 10.0165L45.8572 10.8613L44.4695 8.62878Z" fill="#FCB913"/>
<path id="Vector_11" d="M45.8571 10.8618L42.1765 10.0171L40.9697 11.1032L43.0815 12.853L45.8571 10.8618Z" fill="#CE1E46"/>
<path id="Vector_12" d="M43.0813 12.8515L47.0636 13.1532L45.8568 10.8604L43.0813 12.8515Z" fill="#205FAC"/>
<path id="Vector_13" d="M47.0636 13.1537L43.0813 12.8521L43.8054 13.5158L47.0636 14.9639V13.1537Z" fill="#22418E"/>
<path id="Vector_14" d="M33.4873 8.93018L35.9008 10.9817L37.7713 12.0074L41.0899 15.326L45.8565 22.9889L51.2869 17.6792H52.9161L43.8051 13.5158L41.0295 11.1023L42.1759 10.0163L33.4873 8.93018Z" fill="#ED1E4D"/>
<path id="Vector_15" d="M42.1761 10.0163L40.728 5.06858L33.2461 1.32764L42.1761 10.0163Z" fill="#F7951D"/>
<path id="Vector_16" d="M33.488 8.92999L42.1766 10.0161L33.2467 1.32743L31.4365 0.844727L33.488 8.92999Z" fill="#EE4723"/>
<path id="Vector_17" d="M23.2908 0.241352L33.4879 8.93L31.4364 0.84473L28.2988 0L23.2908 0.241352Z" fill="#F47E20"/>
<path id="Vector_18" d="M28.3591 11.2227L33.4879 8.92985L23.2908 0.241211L28.3591 11.2227Z" fill="#F7951D"/>
<path id="Vector_19" d="M19.0669 0.5429V1.56864L28.3589 11.2227L23.2905 0.241211L19.0669 0.5429Z" fill="#EC2224"/>
<path id="Vector_20" d="M19.0669 1.56871V0.542969L11.8264 5.12864L12.8522 7.3008L19.0669 1.56871Z" fill="#ED1E4D"/>
<path id="Vector_21" d="M12.8516 7.30094L28.3584 11.2229L19.0664 1.56885L12.8516 7.30094Z" fill="#E21567"/>
<path id="Vector_22" d="M14.4203 12.4903L24.1347 18.5241L28.3584 11.2232L12.8516 7.30127L14.4203 12.4903Z" fill="#81499C"/>
<path id="Vector_23" d="M14.4209 12.4903L12.8521 7.30127L7.24072 17.3777L14.4209 12.4903Z" fill="#70479B"/>
<path id="Vector_24" d="M24.1353 18.5245L14.4209 12.4907L7.24072 17.3781L24.1353 18.5245Z" fill="#5C5EA9"/>
<path id="Vector_25" d="M30.7125 11.8867L35.9016 10.9817L33.4881 8.93018L28.3594 11.223L30.7125 11.8867Z" fill="#E51952"/>
<path id="Vector_26" d="M30.7118 11.8869L28.3587 11.2231L24.135 18.524L30.7118 11.8869Z" fill="#1697D4"/>
<path id="Vector_27" d="M29.0224 18.7652L33.0047 13.5762L30.7118 11.8867L24.135 18.5239L29.0224 18.7652Z" fill="#3F76BA"/>
<path id="Vector_28" d="M33.0048 13.5765L36.3233 12.6714L35.901 10.9819L30.7119 11.887L33.0048 13.5765Z" fill="#2160AC"/>
<path id="Vector_29" d="M36.3239 12.6704L33.0054 13.5755L36.3239 15.808V12.6704Z" fill="#22418E"/>
<path id="Vector_30" d="M37.7721 12.0077L35.9016 10.9819L36.324 12.6714L37.7721 12.0077Z" fill="#D01F40"/>
<path id="Vector_31" d="M39.1596 16.5925L41.0904 15.3254L37.7718 12.0068L36.3237 12.6706L39.1596 16.5925Z" fill="#F1622B"/>
<path id="Vector_32" d="M36.3231 15.8082L33.0045 13.5757L29.0222 18.7647L36.3231 15.8082Z" fill="#195BA0"/>
<path id="Vector_33" d="M39.1596 16.5924L36.3237 12.6704V15.808L39.1596 16.5924Z" fill="#195BA0"/>
<path id="Vector_34" d="M41.0902 15.3252L39.1594 16.5923L45.8569 22.9881L41.0902 15.3252Z" fill="#F58A2A"/>
<path id="Vector_35" d="M39.159 30.6512V16.5925L36.3231 15.8081L29.0222 18.7647L39.159 30.6512Z" fill="#FFCC02"/>
<path id="Vector_36" d="M39.1594 16.5933V30.652L45.8569 22.9891L39.1594 16.5933Z" fill="#FDE900"/>
<path id="Vector_37" d="M39.1594 30.6512L42.5987 32.3406L45.8569 22.9883L39.1594 30.6512Z" fill="#F6EB21"/>
<path id="Vector_38" d="M52.916 17.6797H51.2868L45.8564 22.9894L48.8733 23.7738L51.9506 23.3514L52.916 17.6797Z" fill="#D01F40"/>
<path id="Vector_39" d="M45.8566 22.9883L42.5984 32.3406L50.2613 26.5482L48.8735 23.7727L45.8566 22.9883Z" fill="#FAAC18"/>
<path id="Vector_40" d="M53.1578 26.3675L51.951 23.3506L48.8738 23.7729L50.2616 26.5485L52.132 27.0312L53.1578 26.3675Z" fill="#F26D21"/>
<path id="Vector_41" d="M50.2613 26.5488L42.5984 32.3413L47.0634 32.5826L51.287 30.4104L50.2613 26.5488Z" fill="#017C6A"/>
<path id="Vector_42" d="M53.1579 26.3672L52.0719 26.9706L50.2617 26.5482L51.2875 30.4098L54.063 28.0566L53.1579 26.3672Z" fill="#006D66"/>
<path id="Vector_43" d="M51.2874 30.4108L53.1578 30.7728L54.0629 28.0576L51.2874 30.4108Z" fill="#065C6B"/>
<path id="Vector_44" d="M51.2876 30.4102L47.064 32.5823L47.9087 35.0562L52.1927 32.8237L51.2876 30.4102Z" fill="#2CAA82"/>
<path id="Vector_45" d="M54.7869 31.7979L53.1578 30.7722L51.2874 30.4102L52.1924 32.8237L54.3646 32.9443L54.7869 31.7979Z" fill="#40BB9E"/>
<path id="Vector_46" d="M52.1922 32.8237L47.9082 35.0562L54.304 34.8149L54.0627 34.2115L54.3643 32.9444L52.1922 32.8237Z" fill="#08877E"/>
<path id="Vector_47" d="M39.159 30.6522L29.0222 18.7656L30.41 33.307L39.159 30.6522Z" fill="#FAAC18"/>
<path id="Vector_48" d="M30.4101 33.3067L29.0224 18.7653L24.135 18.5239L30.4101 33.3067Z" fill="#325CA9"/>
<path id="Vector_49" d="M39.3404 39.3405L39.1594 30.6519L30.4104 33.3067L39.3404 39.3405Z" fill="#74BF44"/>
<path id="Vector_50" d="M42.5987 32.3413L39.1594 30.6519L39.3404 39.3405L42.5987 32.3413Z" fill="#C3D82E"/>
<path id="Vector_51" d="M47.0633 32.5827L42.5983 32.3413L39.3401 39.3405L47.908 35.0565L47.0633 32.5827Z" fill="#F5EB1B"/>
<path id="Vector_52" d="M47.9081 35.0562L39.3401 39.3401L52.5541 39.5212L55.752 38.4351L47.9081 35.0562Z" fill="#B7D333"/>
<path id="Vector_53" d="M47.9082 35.0563L55.7521 38.4352L54.304 34.8149L47.9082 35.0563Z" fill="#D5DE24"/>
<path id="Vector_54" d="M19.5498 29.2037L30.4106 33.3067L24.1355 18.5239L19.5498 29.2037Z" fill="#01A9D4"/>
<path id="Vector_55" d="M24.1355 18.5239L15.8088 25.3421L19.5498 29.2037L24.1355 18.5239Z" fill="#078DC0"/>
<path id="Vector_56" d="M15.8087 25.3415L24.1353 18.5234L7.24072 17.377L7.30106 17.4373L15.8087 25.3415Z" fill="#56489C"/>
<path id="Vector_57" d="M15.8087 25.3415L7.24072 17.377L7.66309 26.488L15.8087 25.3415Z" fill="#4A3A96"/>
<path id="Vector_58" d="M0.784424 24.5579L7.24057 17.3777L4.46503 13.2144L2.6549 16.9553L0.784424 24.5579Z" fill="#51499D"/>
<path id="Vector_59" d="M7.66293 26.488L7.24056 17.377L0.784424 24.5572L7.66293 26.488Z" fill="#422F8F"/>
<path id="Vector_60" d="M19.5489 29.2034L15.808 25.3418L7.66235 26.4882L19.5489 29.2034Z" fill="#0879B5"/>
<path id="Vector_61" d="M20.9979 37.2884L30.4106 33.3061L19.5498 29.2031L20.9979 37.2884Z" fill="#0092B7"/>
<path id="Vector_62" d="M32.2809 43.6843L41.7539 43.8653L39.3404 39.1589L30.4104 33.3062L32.2809 43.6843Z" fill="#40B449"/>
<path id="Vector_63" d="M55.7522 41.2705L52.5543 39.5207L39.28 39.1587L41.7539 43.865L51.1666 41.0895L55.7522 41.2705Z" fill="#A8CE38"/>
<path id="Vector_64" d="M41.7537 43.8058H51.9507L51.106 41.0303L41.7537 43.8058Z" fill="#7CC142"/>
<path id="Vector_65" d="M52.4944 39.5207L55.7526 41.2704V38.4346L52.4944 39.5207Z" fill="#87C440"/>
<path id="Vector_66" d="M41.7538 43.8057L32.2808 43.6851L33.3065 50.1412L41.7538 43.8057Z" fill="#14B14B"/>
<path id="Vector_67" d="M41.7535 43.8052L39.4607 53.7006L47.9683 49.2356L41.7535 43.8052Z" fill="#009B50"/>
<path id="Vector_68" d="M41.7537 43.8052L47.7271 49.2356L52.0111 43.8052H41.7537Z" fill="#14B14B"/>
<path id="Vector_69" d="M55.7525 41.2716L51.1064 41.0303L51.9512 43.8661H54.6664L55.7525 41.2716Z" fill="#5FBA46"/>
<path id="Vector_70" d="M51.8301 43.8052L48.0288 48.9339L48.2098 49.2959L54.666 43.8655L51.8301 43.8052Z" fill="#019F4E"/>
<path id="Vector_71" d="M41.9951 33.4877L39.6419 38.4354C39.5816 38.4354 39.5213 38.3751 39.5213 38.3751C39.5213 38.3751 39.4609 38.3751 39.4006 38.3751C39.3402 38.3751 39.3402 38.3751 39.2799 38.3751L39.1592 31.1949H38.9782L39.0989 38.4354C38.9179 38.4958 38.7972 38.5561 38.6765 38.7371L30.893 33.7894C30.9533 33.6687 31.0136 33.5481 31.0136 33.4274C31.0136 33.367 31.0136 33.3067 31.0136 33.2464L33.9098 32.281C33.9098 32.2206 33.8495 32.1603 33.8495 32.1L30.9533 33.0654C30.8326 32.8843 30.6516 32.7637 30.4706 32.7033L29.3242 21.9029H29.1432L30.2896 32.643H30.2292L24.8592 19.8514L24.7385 19.9117L30.1086 32.7033C29.9275 32.7637 29.8069 32.8843 29.7465 33.0654L20.2132 29.3848C20.2132 29.3244 20.2132 29.2641 20.2132 29.2037C20.2132 28.9624 20.0925 28.721 19.8511 28.6004L24.1351 18.5843L24.0144 18.5239L19.7305 28.4797C19.6701 28.4797 19.6098 28.4193 19.5494 28.4193C19.3684 28.4193 19.2478 28.4797 19.1271 28.54L16.2912 25.7041C16.4119 25.5835 16.4722 25.4025 16.4722 25.2214C16.4722 25.1008 16.4722 24.9801 16.4119 24.9198L21.5406 20.6961L21.4199 20.5754L16.3515 24.7991C16.2309 24.6181 16.0499 24.5577 15.8085 24.5577C15.6275 24.5577 15.4465 24.6181 15.3258 24.7387L7.84391 17.7396C7.90425 17.6792 7.96459 17.5585 7.96459 17.4379L17.9807 18.2223V18.0412L7.96459 17.2568C7.96459 17.1362 7.90425 17.0758 7.90425 16.9552L12.9123 13.5762L12.7916 13.4556L7.78358 16.8345C7.6629 16.7138 7.48189 16.5931 7.24054 16.5931C7.11986 16.5931 6.99918 16.5931 6.93885 16.6535L4.88736 13.6366L4.76669 13.6969L6.81817 16.7138C6.69749 16.8345 6.57682 17.0155 6.57682 17.2568C6.57682 17.6189 6.87851 17.9206 7.24054 17.9206L7.54222 25.5835C7.30087 25.6438 7.11986 25.8248 7.05952 26.0662L1.38777 24.437C1.38777 24.3767 1.44811 24.3164 1.44811 24.256C1.44811 24.075 1.38777 23.9543 1.32743 23.8337C1.26709 23.7733 1.26709 23.7733 1.20676 23.713C1.14642 23.6527 1.08608 23.6527 1.02574 23.5923L2.83588 16.5931L2.65486 16.5328L0.84473 23.532C0.784392 23.532 0.784392 23.532 0.724054 23.532C0.362027 23.532 0 23.8337 0 24.256C0 24.5577 0.241352 24.8594 0.543041 24.9198L2.05149 34.1514C1.81013 34.2721 1.62912 34.5135 1.62912 34.8152C1.62912 35.1772 1.93081 35.5392 2.35317 35.5392C2.41351 35.5392 2.47385 35.5392 2.53419 35.5392L7.78358 44.2279C7.54223 44.3485 7.42155 44.5899 7.42155 44.8312C7.42155 45.1933 7.72324 45.5553 8.1456 45.5553C8.38695 45.5553 8.56797 45.4346 8.68864 45.3139L13.5157 48.2102C13.4553 48.2705 13.4553 48.3912 13.4553 48.5118C13.4553 48.8739 13.757 49.2359 14.1794 49.2359C14.5414 49.2359 14.9034 48.9342 14.9034 48.5118C14.9034 48.3308 14.8431 48.1498 14.7224 48.0291L20.9372 37.651C20.9976 37.651 21.0579 37.651 21.1182 37.651C21.1786 37.651 21.2389 37.651 21.2992 37.5907L23.8938 44.1675C23.6524 44.2882 23.4111 44.5295 23.4111 44.8312C23.4111 44.9519 23.4714 45.0726 23.5317 45.1933L19.6701 48.3912C19.5494 48.2705 19.3684 48.2102 19.1874 48.2102C18.8254 48.2102 18.4634 48.5118 18.4634 48.9342C18.4634 49.2962 18.7651 49.6583 19.1874 49.6583C19.5494 49.6583 19.8511 49.3566 19.9115 49.0549L27.2123 48.6929C27.2727 48.9342 27.4537 49.1152 27.695 49.1756L27.5744 65.8891C27.2123 65.9495 26.971 66.2512 26.971 66.6132C26.971 66.9752 27.2727 67.3372 27.695 67.3372C28.0571 67.3372 28.4191 67.0356 28.4191 66.6132C28.4191 66.4322 28.3588 66.2512 28.1777 66.1305L33.3065 58.2866C33.3668 58.3469 33.4875 58.4072 33.6082 58.4072L33.9702 72.0436C33.6685 72.1039 33.4271 72.4056 33.4271 72.7073C33.4271 73.0693 33.7288 73.4314 34.1512 73.4314C34.5132 73.4314 34.8752 73.1297 34.8752 72.7073C34.8752 72.4056 34.6942 72.2246 34.5132 72.1039L41.4521 56.4764H41.5124C41.8744 56.4764 42.2365 56.1747 42.2365 55.7524C42.2365 55.6317 42.1761 55.511 42.1761 55.4507L46.5204 50.9254L47.8479 49.8996C47.9082 49.9599 48.0289 49.9599 48.1496 49.9599C48.5116 49.9599 48.8736 49.6583 48.8736 49.2359C48.8736 49.1756 48.8736 49.1756 48.8736 49.1152L54.485 44.4692C54.6057 44.5899 54.7867 44.6502 54.9677 44.6502C55.3298 44.6502 55.6918 44.3485 55.6918 43.9262C55.6918 43.6245 55.5108 43.3831 55.2694 43.2625L55.8728 41.8143C55.9331 41.8143 55.9935 41.8143 56.0538 41.8143C56.4158 41.8143 56.7779 41.5127 56.7779 41.0903C56.7779 40.7283 56.5365 40.4266 56.1745 40.3662V38.8578C56.4762 38.7975 56.7779 38.4958 56.7779 38.1337C56.7779 37.7717 56.4762 37.4097 56.0538 37.4097C55.9935 37.4097 55.9331 37.4097 55.8728 37.4097L54.5454 34.4531L54.4247 34.5135L55.7521 37.47C55.6314 37.5304 55.5108 37.5907 55.4504 37.7114L52.7956 36.6253C52.7956 36.6856 52.7352 36.746 52.7352 36.746L55.3901 37.832C55.3901 37.8924 55.3298 37.9527 55.3298 38.0734C55.3298 38.1337 55.3298 38.1337 55.3298 38.1941L53.2783 38.8578C53.1576 38.6768 52.9766 38.5561 52.7352 38.5561C52.3732 38.5561 52.1319 38.7974 52.0715 39.0991L40.366 38.7974C40.366 38.7974 40.366 38.7975 40.366 38.7371C40.366 38.7371 40.366 38.7371 40.366 38.6768L45.9171 35.9012L45.8567 35.7806L40.3056 38.5561C40.3056 38.4958 40.3056 38.4958 40.2453 38.4354C40.2453 38.4354 40.2453 38.4354 40.2453 38.3751L40.185 38.3148L40.1246 38.2544L42.4778 33.3067L41.9951 33.4877ZM30.893 33.7894L38.7369 38.7371C38.7369 38.7975 38.6765 38.9181 38.6765 38.9785C38.6765 39.3405 38.9782 39.7025 39.4006 39.7025C39.4609 39.7025 39.5213 39.7025 39.5213 39.7025L41.3314 43.0814C41.1504 43.2021 41.0297 43.3831 40.9694 43.6245L32.2807 43.5038L30.6516 33.9704C30.7723 33.9101 30.8326 33.9101 30.893 33.7894ZM41.09 44.1072L33.8495 49.5376C33.7288 49.3566 33.4875 49.2359 33.2461 49.2359L32.3411 43.6848L40.9694 43.8055C41.0297 43.9262 41.0297 44.0468 41.09 44.1072ZM30.2896 34.0308C30.3499 34.0308 30.3499 34.0308 30.4102 34.0308C30.4706 34.0308 30.5309 34.0308 30.5309 34.0308L32.16 43.5038L26.1263 41.211L30.2896 34.0308ZM29.8069 33.7291C29.8672 33.8498 29.9879 33.9101 30.1086 33.9704L26.0056 41.0903L21.5406 37.4097C21.6613 37.289 21.7216 37.1683 21.7216 36.9873L29.8069 33.7291ZM16.6532 33.7291L20.3338 36.746C20.2735 36.8063 20.2735 36.927 20.2735 37.0477L11.3435 36.0822L16.6532 33.7291ZM11.0418 35.9616L7.96459 27.0919C8.02493 27.0919 8.08526 27.0316 8.1456 26.9712L16.5326 33.6084L11.0418 35.9616ZM16.6532 33.4877L8.26628 26.8506C8.32662 26.7902 8.32662 26.7299 8.38695 26.6696L18.8857 29.0227C18.8857 29.0831 18.8857 29.0831 18.8857 29.1434C18.8857 29.3848 19.0064 29.5658 19.1271 29.6864L16.6532 33.4877ZM15.7482 26.0058C15.8688 26.0058 16.0499 25.9455 16.1705 25.8852L19.0064 28.721C18.9461 28.7814 18.8857 28.8417 18.8857 28.902L8.38695 26.5489V26.4885L15.0845 25.5835C15.2051 25.8248 15.4465 26.0058 15.7482 26.0058ZM7.36121 18.0412C7.48189 18.0412 7.60256 17.9809 7.72324 17.8602L15.2051 24.7991C15.1448 24.9198 15.0845 25.0404 15.0845 25.2214C15.0845 25.2818 15.0845 25.2818 15.0845 25.3421L8.38695 26.2472C8.32662 25.8852 8.08526 25.6438 7.72324 25.6438H7.6629L7.36121 18.0412ZM7.72324 27.0919C7.78358 27.0919 7.78358 27.0919 7.84391 27.0919L10.9211 35.9616L3.01689 35.0565C3.01689 34.9962 3.01689 34.9962 3.01689 34.9358C3.01689 34.6945 2.89621 34.5135 2.7152 34.3928L7.42155 27.0316C7.48189 27.0919 7.60256 27.0919 7.72324 27.0919ZM2.29284 34.2721C2.2325 34.2721 2.2325 34.2721 2.17216 34.2721L0.663717 25.1008C0.905068 25.1008 1.14642 24.9801 1.2671 24.7387L6.99919 26.3679C6.99919 26.6092 7.11986 26.7902 7.30087 26.9109L2.59452 34.3325C2.47385 34.3325 2.41351 34.2721 2.29284 34.2721ZM8.08527 44.2279C8.02493 44.2279 7.96459 44.2279 7.90425 44.2279L2.65486 35.5392C2.77554 35.4789 2.89621 35.3582 2.95655 35.1772L10.9211 36.0822L8.38695 44.2279C8.26628 44.2882 8.1456 44.2279 8.08527 44.2279ZM8.50763 44.4089L11.0418 36.2029L20.2735 37.1683C20.2735 37.289 20.3338 37.3493 20.3942 37.47L8.68864 44.7106C8.68864 44.5899 8.62831 44.4692 8.50763 44.4089ZM14.4811 47.9688C14.3604 47.9085 14.2397 47.8481 14.119 47.8481C13.8777 47.8481 13.6967 47.9688 13.576 48.1498L8.74898 45.2536C8.80932 45.1329 8.80932 45.0726 8.80932 44.9519C8.80932 44.8916 8.80932 44.8916 8.80932 44.8312L20.5752 37.5304C20.6355 37.5907 20.6355 37.5907 20.6959 37.5907L14.4811 47.9688ZM20.4545 36.565L16.8342 33.6084L16.7739 33.5481L19.2478 29.7468C19.3684 29.8071 19.4288 29.8071 19.5494 29.8071H19.6098L20.8165 36.2633C20.6355 36.3839 20.5148 36.4443 20.4545 36.565ZM20.9372 36.3236L19.7305 29.8675C19.9115 29.8071 20.0321 29.6864 20.1528 29.5054L29.6862 33.186C29.6862 33.2464 29.6862 33.3067 29.6862 33.367C29.6862 33.4877 29.6862 33.5481 29.7465 33.6687L21.6613 36.8666C21.5406 36.5046 21.2992 36.3236 20.9372 36.3236ZM21.2992 37.651C21.3596 37.651 21.3596 37.5907 21.4199 37.5907L25.9453 41.2713L24.3765 44.3485C24.2558 44.2882 24.1351 44.2882 24.0144 44.2882C23.9541 44.2882 23.9541 44.2882 23.8938 44.2882L21.2992 37.651ZM27.0313 48.5722L19.7908 48.9342C19.7908 48.8135 19.7305 48.7532 19.6701 48.6325L23.5317 45.4346C23.6524 45.5553 23.8334 45.676 24.0144 45.676C24.1955 45.676 24.3765 45.6156 24.4971 45.4949L27.2123 48.0895C27.0917 48.2102 27.0313 48.3912 27.0313 48.5722ZM27.333 47.9688L24.6178 45.3139C24.6782 45.1933 24.7385 45.0726 24.7385 44.9519C24.7385 44.7709 24.6178 44.5295 24.4971 44.4089L26.0056 41.392L26.0659 41.3316L32.2204 43.6245L33.1254 49.2359C32.8841 49.2962 32.6427 49.4772 32.5824 49.7789L28.4191 48.6325C28.4191 48.5722 28.4191 48.5722 28.4191 48.5118C28.4191 48.1498 28.1174 47.7878 27.695 47.7878C27.5744 47.8481 27.3934 47.9085 27.333 47.9688ZM33.0651 58.1659L27.8761 66.0098C27.7554 65.9495 27.695 65.8891 27.5744 65.8891L27.695 49.1756C27.695 49.1756 27.695 49.1756 27.7554 49.1756C27.9364 49.1756 28.0571 49.1152 28.1777 48.9945L33.1858 57.0798C33.0048 57.2005 32.9444 57.3815 32.9444 57.6229C32.8841 57.9245 32.9444 58.0452 33.0651 58.1659ZM33.2461 57.0798L28.2381 48.9342C28.2984 48.8739 28.2984 48.8135 28.3588 48.7532L32.5824 49.8996C32.5824 50.2616 32.8841 50.5633 33.2461 50.6237L33.4271 57.0195C33.3668 57.0798 33.3065 57.0798 33.2461 57.0798ZM33.5478 57.0195L33.3668 50.6237C33.6685 50.5633 33.9098 50.2616 33.9098 49.9599C33.9098 49.8996 33.9098 49.7789 33.8495 49.7186L41.1504 44.2279C41.2107 44.2882 41.3314 44.3485 41.4521 44.4089L39.4609 52.9768C39.4006 52.9768 39.3402 52.9768 39.2799 52.9768C38.9179 52.9768 38.5558 53.2785 38.5558 53.7009C38.5558 53.8819 38.6162 54.0629 38.7369 54.1836L34.0305 57.3212C34.0305 57.1402 33.8495 57.0195 33.5478 57.0195C33.6082 57.0195 33.6082 57.0195 33.5478 57.0195ZM47.1842 49.5376L40.004 53.3389C39.9436 53.2182 39.8229 53.0975 39.6419 52.9768L41.6331 44.3485C41.8141 44.3485 41.9348 44.2882 42.0554 44.2279L47.1842 48.8135C47.1238 48.9342 47.0635 49.0549 47.0635 49.1756C47.1238 49.3566 47.1842 49.4772 47.1842 49.5376ZM46.1584 50.8047L41.8141 55.33C41.6934 55.2093 41.5124 55.0887 41.271 55.0887C40.909 55.0887 40.547 55.3904 40.547 55.8127C40.547 56.1144 40.728 56.4161 41.0297 56.4764L34.1512 72.0436C34.0909 72.0436 34.0305 72.0436 34.0305 72.0436L33.6685 58.4676C34.0305 58.4676 34.3322 58.1659 34.3322 57.7435C34.3322 57.6229 34.3322 57.5625 34.2719 57.5022L39.0386 54.3043C39.1592 54.3646 39.2799 54.4249 39.4006 54.4249C39.7626 54.4249 40.1246 54.1233 40.1246 53.7009C40.1246 53.6406 40.1246 53.5802 40.1246 53.5802L47.3652 49.7186C47.4255 49.7789 47.4255 49.7789 47.4858 49.8393L46.1584 50.8047ZM47.8479 48.5722C47.6669 48.5722 47.4858 48.6325 47.3652 48.7532L42.2365 44.1675C42.3571 44.0468 42.4175 43.9262 42.4175 43.8055H51.1061C51.1061 44.0468 51.2871 44.2279 51.4681 44.2882L48.2702 48.5722C48.0892 48.5722 47.9685 48.5722 47.8479 48.5722ZM42.4778 43.6848L50.9854 41.1506L51.5888 43.0814C51.2871 43.1418 51.0458 43.3831 51.0458 43.6848H42.4778ZM48.5116 48.9342C48.4512 48.8135 48.3909 48.7532 48.3306 48.6929L51.5888 44.3485C51.6492 44.3485 51.7095 44.4089 51.7698 44.4089C52.0715 44.4089 52.3732 44.1675 52.4335 43.9262H53.942V43.9865C53.942 44.1072 54.0023 44.2279 54.0627 44.3485L48.5116 48.9342ZM54.7867 43.2625C54.7264 43.2625 54.666 43.2625 54.6057 43.2625C54.304 43.2625 54.0023 43.4435 53.942 43.7452H52.4335C52.4335 43.7452 52.4335 43.7452 52.4335 43.6848C52.4335 43.3228 52.1319 42.9608 51.7095 42.9608L51.1061 41.03L54.9677 41.211C55.0281 41.4523 55.1487 41.6333 55.3298 41.754L54.7867 43.2625ZM55.0884 38.6164C55.2091 38.8578 55.4504 39.0388 55.6918 39.0388V40.5473C55.4504 40.5473 55.2694 40.6679 55.1487 40.8489L53.1576 39.7629C53.1576 39.7025 53.1576 39.6422 53.1576 39.5818C53.1576 39.4612 53.1576 39.4008 53.0973 39.2802L55.0884 38.6164ZM40.0643 39.2198L51.7698 39.5215C51.7698 39.8835 52.0715 40.2456 52.4939 40.2456C52.7352 40.2456 52.9766 40.1249 53.0973 39.8835L55.0884 40.9696C55.0884 41.03 55.0281 41.0903 55.0281 41.1506L51.0458 40.9093L42.3571 43.5038C42.2968 43.2021 41.9951 43.0211 41.6934 43.0211C41.6331 43.0211 41.5727 43.0211 41.5124 43.0814L39.7023 39.7025C39.8833 39.5818 40.004 39.4612 40.0643 39.2198Z" fill="white"/>
</g>
<path id="Vector_72" d="M171.299 49.1753H72.0435V49.8993H171.299V49.1753Z" fill="url(#paint7_linear_341_3596)"/>
<g id="NextGen">
<path d="M73.21 22.4866V4.20063H76.5986L86.2531 17.5251V4.20063H89.5138V22.4866H86.1252L76.4707 8.8808V22.4866H73.21Z" fill="white"/>
<path d="M98.708 9.05983C102.783 9.05983 104.82 11.1399 104.82 15.3001C104.82 15.8542 104.782 16.4083 104.705 16.9624H95.7924C95.7924 18.8549 97.182 19.8012 99.9611 19.8012C101.317 19.8012 102.672 19.6733 104.027 19.4176V22.1029C102.843 22.3587 101.402 22.4866 99.7054 22.4866C94.8376 22.4866 92.4038 20.1976 92.4038 15.6197C92.4038 11.2465 94.5052 9.05983 98.708 9.05983ZM95.7924 14.6095H101.521V14.5072C101.521 12.6488 100.583 11.7196 98.708 11.7196C96.9177 11.7196 95.9459 12.6829 95.7924 14.6095Z" fill="white"/>
<path d="M110.792 15.7732L105.767 9.05983H109.539L112.672 13.2541L115.805 9.05983H119.577L114.564 15.7732L119.577 22.4866H115.805L112.672 18.2923L109.539 22.4866H105.767L110.792 15.7732Z" fill="white"/>
<path d="M120.984 6.88597H123.49L124.001 9.05983H127.377V11.7452H124.372V17.9215C124.372 19.1746 124.914 19.8012 125.996 19.8012H127.377V22.4866H124.359C122.109 22.4866 120.984 21.2803 120.984 18.8677V6.88597Z" fill="white"/>
<path d="M144.589 21.6426C143.114 22.2905 141.269 22.6144 139.052 22.6144C132.599 22.6144 129.372 19.4389 129.372 13.0878C129.372 7.07778 132.654 4.07275 139.218 4.07275C141.222 4.07275 143.012 4.37113 144.589 4.96787V8.03684C143.012 7.35484 141.307 7.01385 139.474 7.01385C135.084 7.01385 132.889 9.03851 132.889 13.0878C132.889 17.4782 134.96 19.6733 139.103 19.6733C139.717 19.6733 140.416 19.571 141.2 19.3664V14.0469H144.589V21.6426Z" fill="white"/>
<path d="M153.131 9.05983C157.206 9.05983 159.243 11.1399 159.243 15.3001C159.243 15.8542 159.205 16.4083 159.128 16.9624H150.215C150.215 18.8549 151.605 19.8012 154.384 19.8012C155.74 19.8012 157.095 19.6733 158.45 19.4176V22.1029C157.266 22.3587 155.825 22.4866 154.128 22.4866C149.261 22.4866 146.827 20.1976 146.827 15.6197C146.827 11.2465 148.928 9.05983 153.131 9.05983ZM150.215 14.6095H155.944V14.5072C155.944 12.6488 155.006 11.7196 153.131 11.7196C151.341 11.7196 150.369 12.6829 150.215 14.6095Z" fill="white"/>
<path d="M161.788 22.4866V9.05983H164.409L164.831 11.0291C166.119 9.71624 167.585 9.05983 169.23 9.05983C172.41 9.05983 174 10.7137 174 14.0213V22.4866H170.611V14.0213C170.611 12.538 169.874 11.7963 168.399 11.7963C167.299 11.7963 166.225 12.2354 165.177 13.1134V22.4866H161.788Z" fill="white"/>
</g>
<g id="learning">
<path d="M74.208 28.1865V39.1784H73.4009V28.1865H74.208Z" fill="white"/>
<path d="M80.0806 31.1074C82.2892 31.1074 83.3935 32.3296 83.3935 34.774C83.3935 34.9482 83.3884 35.1301 83.3781 35.3197H77.2519C77.2519 37.431 78.369 38.4866 80.6033 38.4866C81.5205 38.4866 82.3353 38.3585 83.0476 38.1023V38.7941C82.3353 39.0503 81.5205 39.1784 80.6033 39.1784C77.8309 39.1784 76.4448 37.8025 76.4448 35.0507C76.4448 32.4219 77.6567 31.1074 80.0806 31.1074ZM77.2519 34.5972H82.6171C82.5864 32.7216 81.7409 31.7839 80.0806 31.7839C78.287 31.7839 77.3441 32.7216 77.2519 34.5972Z" fill="white"/>
<path d="M85.0077 36.8955C85.0077 35.2915 86.0736 34.4896 88.2053 34.4896C88.9586 34.4896 89.7632 34.5408 90.6189 34.6433V33.6517C90.6189 32.4167 89.8426 31.7992 88.2899 31.7992C87.4597 31.7992 86.6091 31.9274 85.7379 32.1836V31.4918C86.6091 31.2356 87.4597 31.1074 88.2899 31.1074C90.3806 31.1074 91.426 31.9427 91.426 33.6133V39.1784H90.9341L90.7496 38.379C89.7401 38.9119 88.7613 39.1784 87.8133 39.1784C85.9429 39.1784 85.0077 38.4174 85.0077 36.8955ZM88.2053 35.1814C86.6116 35.1814 85.8148 35.745 85.8148 36.8724C85.8148 37.9485 86.481 38.4866 87.8133 38.4866C88.7972 38.4866 89.7324 38.2253 90.6189 37.7026V35.3351C89.7632 35.2326 88.9586 35.1814 88.2053 35.1814Z" fill="white"/>
<path d="M93.8934 39.1784V31.1074H94.4699L94.5699 32.4449C95.3795 31.5533 96.2814 31.1074 97.2755 31.1074V31.7531C96.3122 31.7531 95.4538 32.222 94.7005 33.1598V39.1784H93.8934Z" fill="white"/>
<path d="M98.7821 39.1784V31.1074H99.3586L99.4586 32.1375C100.489 31.4508 101.498 31.1074 102.487 31.1074C104.45 31.1074 105.431 31.9555 105.431 33.6517V39.1784H104.624V33.6287C104.624 32.4295 103.899 31.83 102.449 31.83C101.48 31.83 100.527 32.1708 99.5892 32.8523V39.1784H98.7821Z" fill="white"/>
<path d="M108.936 28.1865V29.1089H107.975V28.1865H108.936ZM108.859 31.1074V39.1784H108.052V31.1074H108.859Z" fill="white"/>
<path d="M111.48 39.1784V31.1074H112.057L112.157 32.1375C113.187 31.4508 114.196 31.1074 115.185 31.1074C117.148 31.1074 118.129 31.9555 118.129 33.6517V39.1784H117.322V33.6287C117.322 32.4295 116.597 31.83 115.147 31.83C114.178 31.83 113.225 32.1708 112.288 32.8523V39.1784H111.48Z" fill="white"/>
<path d="M126.454 32.0145C125.711 31.8915 124.981 31.83 124.263 31.83C122.085 31.83 120.996 32.9138 120.996 35.0814C120.996 37.3003 122.014 38.4097 124.048 38.4097C124.786 38.4097 125.588 38.2714 126.454 37.9947V32.0145ZM127.261 39.1784C127.261 41.1257 126.075 42.0993 123.702 42.0993C122.708 42.0993 121.827 41.9712 121.058 41.715V41.0232C121.842 41.2794 122.729 41.4075 123.718 41.4075C125.542 41.4075 126.454 40.6645 126.454 39.1784V38.7941C125.542 39.0503 124.737 39.1784 124.04 39.1784C121.488 39.1784 120.212 37.8179 120.212 35.0968C120.212 32.4372 121.583 31.1074 124.325 31.1074C125.365 31.1074 126.344 31.2176 127.261 31.438V39.1784Z" fill="white"/>
</g>
<g id="quality education">
<path d="M76.0136 55.9227C75.6598 55.8679 75.3232 55.8406 75.0036 55.8406C74.0564 55.8406 73.5828 56.3233 73.5828 57.2887C73.5828 58.277 74.0359 58.7711 74.942 58.7711C75.2707 58.7711 75.6279 58.7095 76.0136 58.5863V55.9227ZM76.3731 60.4145H76.0136V58.9423C75.6073 59.0564 75.249 59.1135 74.9386 59.1135C73.802 59.1135 73.2336 58.5075 73.2336 57.2956C73.2336 56.111 73.8328 55.5187 75.031 55.5187C75.5172 55.5187 75.9645 55.5678 76.3731 55.666V60.4145Z" fill="white"/>
<path d="M80.4334 55.5187V59.1135H80.1698L80.1287 58.6547C79.7156 58.9606 79.2546 59.1135 78.7456 59.1135C77.8966 59.1135 77.472 58.6673 77.472 57.7749V55.5187H77.8315V57.7852C77.8315 58.4562 78.1419 58.7917 78.7627 58.7917C79.2169 58.7917 79.654 58.6399 80.074 58.3363V55.5187H80.4334Z" fill="white"/>
<path d="M81.327 58.0967C81.327 57.3823 81.8017 57.0251 82.7512 57.0251C83.0867 57.0251 83.4451 57.0479 83.8262 57.0936V56.6519C83.8262 56.1019 83.4804 55.8269 82.7889 55.8269C82.4191 55.8269 82.0402 55.8839 81.6522 55.998V55.6899C82.0402 55.5758 82.4191 55.5187 82.7889 55.5187C83.7201 55.5187 84.1857 55.8908 84.1857 56.6348V59.1135H83.9666L83.8844 58.7574C83.4348 58.9948 82.9988 59.1135 82.5766 59.1135C81.7435 59.1135 81.327 58.7746 81.327 58.0967ZM82.7512 57.3332C82.0414 57.3332 81.6865 57.5843 81.6865 58.0864C81.6865 58.5657 81.9832 58.8054 82.5766 58.8054C83.0148 58.8054 83.4314 58.689 83.8262 58.4562V57.4017C83.4451 57.3561 83.0867 57.3332 82.7512 57.3332Z" fill="white"/>
<path d="M85.7126 54.2178V59.1135H85.3531V54.2178H85.7126Z" fill="white"/>
<path d="M87.3422 54.2178V54.6286H86.9143V54.2178H87.3422ZM87.308 55.5187V59.1135H86.9485V55.5187H87.308Z" fill="white"/>
<path d="M88.4617 54.9367H88.7151L88.7801 55.5187H89.8586V55.8269H88.811V58.0967C88.811 58.5692 88.9844 58.8054 89.3313 58.8054H89.8586V59.1135H89.3382C88.7539 59.1135 88.4617 58.7905 88.4617 58.1446V54.9367Z" fill="white"/>
<path d="M90.1975 55.5187H90.6118L91.947 58.7643L93.2616 55.5187H93.6587L92.0976 59.2196C91.8328 59.8724 91.4357 60.2798 90.9062 60.4419L90.8001 60.1543C91.2155 60.0036 91.5327 59.675 91.7518 59.1683L90.1975 55.5187Z" fill="white"/>
<path d="M97.4897 55.5187C98.4735 55.5187 98.9653 56.0631 98.9653 57.1518C98.9653 57.2294 98.963 57.3104 98.9585 57.3949H96.2299C96.2299 58.3352 96.7274 58.8054 97.7225 58.8054C98.1311 58.8054 98.494 58.7483 98.8112 58.6342V58.9423C98.494 59.0564 98.1311 59.1135 97.7225 59.1135C96.4878 59.1135 95.8704 58.5007 95.8704 57.275C95.8704 56.1042 96.4102 55.5187 97.4897 55.5187ZM96.2299 57.073H98.6195C98.6058 56.2377 98.2292 55.82 97.4897 55.82C96.6909 55.82 96.2709 56.2377 96.2299 57.073Z" fill="white"/>
<path d="M102.509 56.046C102.162 55.9227 101.801 55.8611 101.427 55.8611C100.544 55.8611 100.102 56.3141 100.102 57.2203C100.102 58.2679 100.544 58.7917 101.427 58.7917C101.801 58.7917 102.162 58.7472 102.509 58.6582V56.046ZM102.868 58.8978C102.478 59.0416 101.986 59.1135 101.393 59.1135C100.277 59.1135 99.7185 58.4904 99.7185 57.2442C99.7185 56.0939 100.287 55.5187 101.423 55.5187C101.779 55.5187 102.141 55.5758 102.509 55.6899V54.2178H102.868V58.8978Z" fill="white"/>
<path d="M106.925 55.5187V59.1135H106.662L106.62 58.6547C106.207 58.9606 105.746 59.1135 105.237 59.1135C104.388 59.1135 103.964 58.6673 103.964 57.7749V55.5187H104.323V57.7852C104.323 58.4562 104.634 58.7917 105.254 58.7917C105.709 58.7917 106.146 58.6399 106.566 58.3363V55.5187H106.925Z" fill="white"/>
<path d="M110.626 59.0108C110.329 59.0793 110.01 59.1135 109.667 59.1135C108.458 59.1135 107.853 58.4916 107.853 57.2476C107.853 56.095 108.458 55.5187 109.667 55.5187C110.01 55.5187 110.329 55.553 110.626 55.6214V55.9296C110.307 55.8611 109.998 55.8269 109.702 55.8269C108.732 55.8269 108.247 56.3005 108.247 57.2476C108.247 58.2861 108.732 58.8054 109.702 58.8054C109.998 58.8054 110.307 58.7711 110.626 58.7027V59.0108Z" fill="white"/>
<path d="M111.263 58.0967C111.263 57.3823 111.738 57.0251 112.687 57.0251C113.023 57.0251 113.381 57.0479 113.762 57.0936V56.6519C113.762 56.1019 113.416 55.8269 112.725 55.8269C112.355 55.8269 111.976 55.8839 111.588 55.998V55.6899C111.976 55.5758 112.355 55.5187 112.725 55.5187C113.656 55.5187 114.122 55.8908 114.122 56.6348V59.1135H113.902L113.82 58.7574C113.371 58.9948 112.935 59.1135 112.512 59.1135C111.679 59.1135 111.263 58.7746 111.263 58.0967ZM112.687 57.3332C111.977 57.3332 111.622 57.5843 111.622 58.0864C111.622 58.5657 111.919 58.8054 112.512 58.8054C112.951 58.8054 113.367 58.689 113.762 58.4562V57.4017C113.381 57.3561 113.023 57.3332 112.687 57.3332Z" fill="white"/>
<path d="M115.207 54.9367H115.46L115.525 55.5187H116.604V55.8269H115.556V58.0967C115.556 58.5692 115.729 58.8054 116.076 58.8054H116.604V59.1135H116.083C115.499 59.1135 115.207 58.7905 115.207 58.1446V54.9367Z" fill="white"/>
<path d="M117.833 54.2178V54.6286H117.405V54.2178H117.833ZM117.798 55.5187V59.1135H117.439V55.5187H117.798Z" fill="white"/>
<path d="M119.154 57.3024C119.154 58.3272 119.594 58.8396 120.472 58.8396C121.351 58.8396 121.79 58.3272 121.79 57.3024C121.79 56.2959 121.351 55.7926 120.472 55.7926C119.594 55.7926 119.154 56.2959 119.154 57.3024ZM118.795 57.3161C118.795 56.095 119.354 55.4845 120.472 55.4845C121.591 55.4845 122.15 56.095 122.15 57.3161C122.15 58.5349 121.591 59.1443 120.472 59.1443C119.358 59.1443 118.799 58.5349 118.795 57.3161Z" fill="white"/>
<path d="M123.074 59.1135V55.5187H123.331L123.375 55.9775C123.834 55.6717 124.284 55.5187 124.724 55.5187C125.599 55.5187 126.036 55.8965 126.036 56.6519V59.1135H125.676V56.6417C125.676 56.1076 125.353 55.8406 124.707 55.8406C124.276 55.8406 123.851 55.9923 123.434 56.2959V59.1135H123.074Z" fill="white"/>
</g>
</g>
<defs>
<linearGradient id="paint0_linear_341_3596" x1="30.3889" y1="32.3067" x2="24.3671" y2="38.1673" gradientUnits="userSpaceOnUse">
<stop stop-color="#0092B7"/>
<stop offset="1" stop-color="#41B349" stop-opacity="0"/>
</linearGradient>
<linearGradient id="paint1_linear_341_3596" x1="20.1265" y1="28.6685" x2="18.9974" y2="34.2606" gradientUnits="userSpaceOnUse">
<stop stop-color="#0092B7"/>
<stop offset="1" stop-color="#0092B7" stop-opacity="0"/>
</linearGradient>
<linearGradient id="paint2_linear_341_3596" x1="12.2986" y1="29.5563" x2="10.5781" y2="34.5029" gradientUnits="userSpaceOnUse">
<stop stop-color="#2B2978"/>
<stop offset="1" stop-color="#2B2978" stop-opacity="0"/>
</linearGradient>
<linearGradient id="paint3_linear_341_3596" x1="6.82042" y1="27.793" x2="1.65907" y2="29.6209" gradientUnits="userSpaceOnUse">
<stop stop-color="#2B2978"/>
<stop offset="0.9951" stop-color="#2B2978" stop-opacity="0"/>
</linearGradient>
<linearGradient id="paint4_linear_341_3596" x1="7.44" y1="27.1491" x2="6.7072" y2="34.7216" gradientUnits="userSpaceOnUse">
<stop stop-color="#3A3A96"/>
<stop offset="1" stop-color="#3A3A96" stop-opacity="0"/>
</linearGradient>
<linearGradient id="paint5_linear_341_3596" x1="41.0057" y1="44.5138" x2="34.6345" y2="54.7561" gradientUnits="userSpaceOnUse">
<stop stop-color="#49B649"/>
<stop offset="1" stop-color="#49B649" stop-opacity="0"/>
</linearGradient>
<linearGradient id="paint6_linear_341_3596" x1="31.7125" y1="33.4601" x2="29.5619" y2="40.8799" gradientUnits="userSpaceOnUse">
<stop stop-color="#41B349"/>
<stop offset="1" stop-color="#41B349" stop-opacity="0"/>
</linearGradient>
<linearGradient id="paint7_linear_341_3596" x1="72.0176" y1="49.5626" x2="171.276" y2="49.5626" gradientUnits="userSpaceOnUse">
<stop stop-color="#73479B"/>
<stop offset="0.2167" stop-color="#E70881"/>
<stop offset="0.4286" stop-color="#F16522"/>
<stop offset="0.6207" stop-color="#FFDE0A"/>
<stop offset="0.8276" stop-color="#91C73E"/>
<stop offset="1" stop-color="#52C8EC"/>
</linearGradient>
</defs>
</svg>
